# xmcd CD database file
#
# Track frame offsets:
#	150
#	42329
#	76094
#	108588
#	151109
#	215762
#	273037
#
# Disc length: 4088 seconds
#
# Revision: 0
# Processed by: cddbd v1.5.2PL0 Copyright (c) Steve Scherf et al.
# Submitted via: CDex 1.70beta3
#
DISCID=520ff607
DTITLE=Chick Corea - Akoustic Band Live [CD1]
DYEAR=2018
DGENRE=Jazz
TTITLE0=Morning Sprite
TTITLE1=Japanese Waltz
TTITLE2=That Old Feeling
TTITLE3=In A Sentimental Mood
TTITLE4=Rhumba Flamenco
TTITLE5=Summer Night
TTITLE6=Humpty Dumpty (Set 1)
EXTD=YEAR: 2018
EXTT0=
EXTT1=
EXTT2=
EXTT3=
EXTT4=
EXTT5=
EXTT6=
PLAYORDER=
